<svg width="189" height="65" viewBox="0 0 189 65" fill="none" xmlns="http://www.w3.org/2000/svg">
<path d="M12.72 29.48C10.46 29.48 8.43 29.01 6.63 28.07C4.83 27.13 3.42 25.83 2.4 24.17C1.38 22.49 0.87 20.6 0.87 18.5C0.87 16.4 1.38 14.52 2.4 12.86C3.42 11.18 4.83 9.87 6.63 8.93C8.43 7.99 10.46 7.52 12.72 7.52C14.98 7.52 17.01 7.99 18.81 8.93C20.61 9.87 22.02 11.18 23.04 12.86C24.06 14.52 24.57 16.4 24.57 18.5C24.57 20.6 24.06 22.49 23.04 24.17C22.02 25.83 20.61 27.13 18.81 28.07C17.01 29.01 14.98 29.48 12.72 29.48ZM12.72 23.75C13.6 23.75 14.39 23.54 15.09 23.12C15.81 22.68 16.38 22.07 16.8 21.29C17.22 20.49 17.43 19.56 17.43 18.5C17.43 17.44 17.22 16.52 16.8 15.74C16.38 14.94 15.81 14.33 15.09 13.91C14.39 13.47 13.6 13.25 12.72 13.25C11.84 13.25 11.04 13.47 10.32 13.91C9.62 14.33 9.06 14.94 8.64 15.74C8.22 16.52 8.01 17.44 8.01 18.5C8.01 19.56 8.22 20.49 8.64 21.29C9.06 22.07 9.62 22.68 10.32 23.12C11.04 23.54 11.84 23.75 12.72 23.75ZM34.5197 13.34V16.94H43.2797V22.28H34.5197V29H27.4397V8H44.5097V13.34H34.5197ZM54.1263 13.34V16.94H62.8863V22.28H54.1263V29H47.0463V8H64.1163V13.34H54.1263ZM66.293 17.78H75.293V22.88H66.293V17.78ZM89.5024 29.48C87.2824 29.48 85.2824 29.02 83.5024 28.1C81.7224 27.16 80.3224 25.86 79.3024 24.2C78.3024 22.52 77.8024 20.62 77.8024 18.5C77.8024 16.38 78.3024 14.49 79.3024 12.83C80.3224 11.15 81.7224 9.85 83.5024 8.93C85.2824 7.99 87.2824 7.52 89.5024 7.52C91.5424 7.52 93.3624 7.88 94.9624 8.6C96.5624 9.32 97.8824 10.36 98.9224 11.72L94.4524 15.71C93.1524 14.07 91.6224 13.25 89.8624 13.25C88.3824 13.25 87.1924 13.73 86.2924 14.69C85.3924 15.63 84.9424 16.9 84.9424 18.5C84.9424 20.1 85.3924 21.38 86.2924 22.34C87.1924 23.28 88.3824 23.75 89.8624 23.75C91.6224 23.75 93.1524 22.93 94.4524 21.29L98.9224 25.28C97.8824 26.64 96.5624 27.68 94.9624 28.4C93.3624 29.12 91.5424 29.48 89.5024 29.48ZM121.967 8V29H114.887V21.26H108.347V29H101.267V8H108.347V15.44H114.887V8H121.967ZM139.988 25.34H132.008L130.598 29H123.398L132.578 8H139.538L148.718 29H141.398L139.988 25.34ZM138.038 20.24L135.998 14.96L133.958 20.24H138.038ZM150.148 8H157.228V29H150.148V8ZM181.636 8V29H175.816L167.836 19.46V29H160.936V8H166.756L174.736 17.54V8H181.636Z" fill="white"/>
<path d="M128.891 29.9043C129.026 31.2173 128.862 32.4407 128.396 33.5747C127.93 34.7087 127.364 35.652 126.698 36.4046C126.05 37.1352 125.064 37.8103 123.741 38.4298C122.418 39.0493 120.831 39.4549 118.981 39.6464C117.131 39.8379 115.869 40.1796 115.196 40.6715C114.523 41.1634 113.911 42.0411 113.358 43.3048C112.947 44.1918 112.539 45.2092 112.135 46.3568C111.751 47.5025 111.512 48.3013 111.418 48.7534C111.324 49.2055 110.982 49.5928 110.393 49.9152C109.805 50.2576 109.243 50.4665 108.708 50.542L107.879 50.6881C107.282 50.7499 106.97 50.6515 106.943 50.3929L106.934 50.3034C106.911 50.0845 107.463 48.7104 108.589 46.1811C109.734 43.6497 110.991 40.8354 112.359 37.738C113.747 34.6386 114.624 32.5171 114.988 31.3735C115.372 30.2279 115.525 29.2771 115.447 28.5211L115.416 28.2227C115.383 27.9044 116.034 27.5957 117.371 27.2965C118.725 26.9754 120.188 26.7335 121.759 26.5708C124.266 26.3113 126.043 26.4793 127.09 27.0747C128.154 27.6481 128.755 28.5913 128.891 29.9043ZM119.704 29.4377C119.23 30.11 118.475 31.5554 117.438 33.774C116.399 35.9727 115.893 37.2013 115.92 37.4599C115.944 37.6987 116.1 37.8434 116.387 37.8942C116.673 37.9449 117.344 37.9157 118.398 37.8066C119.473 37.6954 120.488 37.3993 121.443 36.9183C122.419 36.4353 123.167 35.8954 123.688 35.2986C124.21 34.7017 124.625 34.0555 124.935 33.3599C125.457 32.1799 125.681 31.2418 125.609 30.5455C125.537 29.8493 125.384 29.3423 125.15 29.0247C124.934 28.6852 124.64 28.4643 124.267 28.3621C123.648 28.2051 122.851 28.177 121.876 28.2779C120.921 28.3767 120.197 28.7633 119.704 29.4377ZM129.811 45.9749L129.805 45.3421C129.789 45.183 129.721 45.1096 129.602 45.1219C129.423 45.1405 129.081 45.4372 128.578 46.0121C128.094 46.5849 127.461 47.1732 126.68 47.7769C125.919 48.3985 125.122 48.7525 124.286 48.839C123.47 48.9234 123 48.3589 122.874 47.1454C122.718 45.6334 123.194 43.8248 124.303 41.7194C124.877 40.6547 125.558 39.6593 126.347 38.7331C127.153 37.785 128.165 36.9765 129.383 36.3076C130.599 35.6188 131.903 35.2023 133.295 35.0582C134.031 34.982 134.678 35.116 135.237 35.4604C135.793 35.7848 136.101 36.2355 136.161 36.8124C136.219 37.3694 136.078 37.6654 135.74 37.7005C135.561 37.719 135.311 37.6343 134.99 37.4463C134.394 37.126 133.499 37.0276 132.305 37.1512C130.734 37.3139 129.316 38.1845 128.052 39.763C126.805 41.3196 126.254 42.7942 126.398 44.1868C126.417 44.3658 126.484 44.5298 126.6 44.6786C126.736 44.8254 126.903 44.8885 127.102 44.8679C127.699 44.8061 128.423 44.319 129.273 43.4066C130.122 42.4743 130.913 41.186 131.648 39.5416C131.689 39.3564 131.89 39.1646 132.252 38.9663C132.613 38.7681 133.053 38.6421 133.57 38.5886C134.312 38.5721 134.697 38.6932 134.724 38.9518C134.726 38.9717 134.659 39.1092 134.525 39.3644C134.408 39.5977 134.192 40.0322 133.876 40.6682C133.56 41.3041 133.124 42.3445 132.57 43.7892C132.034 45.212 131.747 46.3274 131.71 47.1355C131.715 47.3763 131.628 47.506 131.449 47.5245C130.474 47.6254 129.928 47.1089 129.811 45.9749ZM145.025 41.6253C144.647 41.6644 144.339 41.5053 144.101 41.1479C143.861 40.7706 143.723 40.4029 143.685 40.0448C143.646 39.6669 143.721 39.2268 143.911 38.7246C143.884 38.466 143.771 38.347 143.572 38.3676C142.796 38.4479 141.959 39.007 141.062 40.045C140.162 41.0631 139.425 42.1045 138.851 43.1692C138.276 44.214 137.761 45.2625 137.307 46.3149C137.031 46.9467 136.365 47.3172 135.311 47.4263C134.774 47.4819 134.493 47.3904 134.468 47.1516C134.413 46.6145 135.18 44.5143 136.772 40.851C138.381 37.1657 139.491 35.1708 140.103 34.8662C140.518 34.602 140.994 34.4422 141.531 34.3866C142.088 34.3289 142.379 34.4194 142.404 34.6582C142.427 34.877 142.243 35.3383 141.854 36.0422C141.464 36.746 141.279 37.1875 141.297 37.3665C141.316 37.5456 141.394 37.6279 141.534 37.6135C141.613 37.6052 141.82 37.4632 142.153 37.1874C142.961 36.4403 143.965 35.6527 145.166 34.8247L145.397 34.4388C145.813 33.7926 146.468 33.4231 147.364 33.3304C148.279 33.2357 148.755 33.3674 148.792 33.7255C148.762 33.8291 148.679 33.9985 148.543 34.2338C147.194 36.545 146.104 38.93 145.272 41.3886C145.207 41.5361 145.125 41.615 145.025 41.6253ZM160.162 24.6164L161.618 24.4053C161.817 24.3847 161.921 24.4142 161.929 24.4938C161.937 24.5734 161.928 24.6749 161.9 24.7984C161.873 24.9219 161.799 25.0803 161.678 25.2738C161.577 25.4652 161.444 25.6398 161.28 25.7976C160.841 26.225 160.264 26.4757 159.548 26.5499C158.852 26.622 158.337 26.6954 158.003 26.7702C157.688 26.8429 157.42 26.9712 157.198 27.1551C156.976 27.3389 156.829 27.4748 156.758 27.5626C156.686 27.6504 156.568 27.8637 156.402 28.2026C156.236 28.5415 156.119 28.7748 156.052 28.9024C155.15 30.4836 153.726 33.4359 151.781 37.7592C149.856 42.0804 148.72 45.3849 148.374 47.6727C148.334 47.8778 148.156 47.9968 147.837 48.0298C147.539 48.0607 147.095 47.8453 146.504 47.3837C145.913 46.922 145.59 46.4226 145.534 45.8855C145.479 45.3484 146.119 43.6635 147.454 40.831C148.81 37.9964 150.17 35.2115 151.536 32.4763C152.899 29.7213 153.567 28.2045 153.538 27.926C153.507 27.6276 153.369 27.4609 153.124 27.426C152.877 27.3711 152.455 27.3745 151.858 27.4363L150.874 27.5383C150.615 27.565 150.473 27.4591 150.449 27.2203C150.424 26.9816 150.508 26.7216 150.7 26.4403C150.91 26.1371 151.233 25.8624 151.67 25.6161C152.127 25.3677 152.584 25.1193 153.041 24.871C153.517 24.6206 154.108 24.1071 154.811 23.3305C155.535 22.5518 156.238 21.5742 156.921 20.3977C157.348 19.6698 158.168 19.2431 159.382 19.1175C159.8 19.0742 160.022 19.1819 160.049 19.4405C160.065 19.5997 159.693 20.3721 158.931 21.7579C158.17 23.1437 157.807 24.0056 157.842 24.3438C157.875 24.6621 158.19 24.7904 158.786 24.7286C159.027 24.7238 159.486 24.6864 160.162 24.6164ZM148.196 64.0379C147.361 64.1244 146.871 63.4714 146.727 62.0788C146.583 60.6862 146.83 59.0923 147.468 57.297C148.109 55.5216 148.932 53.858 149.938 52.3063C150.925 50.7764 152.014 49.4473 153.205 48.3187C154.395 47.1902 155.427 46.5806 156.303 46.49C156.601 46.4591 156.758 46.5133 156.772 46.6526C156.786 46.7918 156.68 46.9335 156.454 47.0775C155.739 47.5537 154.862 48.499 153.822 49.9136C152.804 51.346 151.914 52.9462 151.152 54.714C150.372 56.5038 150.042 57.9757 150.161 59.1295C150.213 59.6268 150.418 59.857 150.776 59.8199C151.472 59.7478 152.426 58.6639 153.636 56.5681C155.601 53.208 157.526 48.9873 159.413 43.906C159.981 42.3995 160.251 41.507 160.222 41.2285C160.193 40.95 160.099 40.819 159.94 40.8355C159.741 40.8561 159.552 40.9761 159.374 41.1956C157.344 43.3361 155.712 44.4701 154.478 44.5978C153.583 44.6905 153.086 44.2594 152.987 43.3045C152.886 42.3297 153.259 40.7831 154.105 38.6647C154.97 36.5243 155.892 34.8504 156.873 33.643C157.087 33.3796 157.396 33.1566 157.799 32.9741C158.2 32.7717 158.62 32.6479 159.057 32.6026C159.515 32.5552 159.754 32.631 159.775 32.8299C159.783 32.9095 159.512 33.4 158.962 34.3014C157.298 37.0675 156.522 38.9976 156.636 40.0917C156.685 40.5692 156.919 40.7863 157.336 40.743C158.073 40.6668 159.132 39.8333 160.516 38.2424C161.919 36.6494 163.098 34.8284 164.052 32.7792C164.336 32.026 165.095 31.5855 166.328 31.4579C166.925 31.3961 167.236 31.4846 167.261 31.7233C167.267 31.783 167.245 31.8656 167.196 31.9713C165.596 35.354 164.153 38.6098 162.868 41.7387C161.582 44.8477 160.533 47.2484 159.723 48.9408C158.935 50.6511 158.034 52.4333 157.019 54.2877C156.025 56.1399 155.044 57.7394 154.078 59.086C153.133 60.4505 152.145 61.5883 151.114 62.4994C150.064 63.4324 149.092 63.9452 148.196 64.0379Z" fill="#995BD4"/>
</svg>
