<svg width="35" height="52" viewBox="0 0 35 52" fill="none" xmlns="http://www.w3.org/2000/svg">
<path d="M0.511108 29.7305L1.75829 29.1862L17.1053 22.5158L33.6867 29.7305L27.461 42.5934L12.2162 44.7478L0.77179 32.3833L0.511108 29.7305Z" fill="#133444"/>
<path d="M30.2391 21.7899C27.5012 18.4916 23.6213 16.3454 19.3723 15.7789L19.1013 15.7431C17.7755 15.5821 16.4351 15.5821 15.1093 15.7431L14.8359 15.7764C10.5859 16.3418 6.70539 18.4892 3.96902 21.7899L3.27898 22.9349L2.13147 24.8414L1.2932 26.2369C1.2932 26.2701 1.25997 26.3161 1.24719 26.3493V26.3723L3.09497 27.4738L14.8512 34.4253L17.1207 35.7645V19.1524L14.8512 20.1747V17.6957L17.1207 16.6734L19.3876 17.6957L30.924 22.9477L30.2391 21.7899Z" fill="#C42370"/>
<path d="M34.1979 33.858C34.1816 36.5495 33.5725 39.2044 32.4138 41.6338C31.2552 44.0633 29.5755 46.2076 27.4943 47.9144C25.8917 49.2321 24.0627 50.247 22.0966 50.9096C20.4915 51.4364 18.8126 51.7039 17.1232 51.7019C7.66712 51.7019 0 43.2962 0 33.858C0.00528861 32.4625 0.176879 31.0726 0.511141 29.7177L17.0926 39.5291L33.6765 29.7177C34.0253 31.0701 34.2005 32.4614 34.1979 33.858Z" fill="#1C4D6B"/>
<path d="M15.1094 15.7559L17.1054 16.653L14.8359 17.6829V15.6307L15.1094 15.7559Z" fill="black"/>
<path d="M14.8359 20.1798L17.1054 19.1473V35.7645L14.8359 34.4253V20.1798Z" fill="black"/>
<path d="M17.1053 19.1473V35.7645L32.9967 26.3723L17.1053 19.1473Z" fill="#1D4259"/>
<path d="M17.1053 0V19.1473L32.9967 26.3723L17.1053 0Z" fill="#4B6B9A"/>
<path d="M17.1054 19.1473V35.7594L14.8359 34.4202L1.23699 26.3723H1.21399H1.24721C1.24721 26.3391 1.28299 26.2931 1.29322 26.2599L3.279 22.9579L14.8359 17.7187V20.1901L17.1054 19.1473Z" fill="#343535"/>
<path d="M17.1054 19.1473V35.7645L14.8359 34.4253L1.22421 26.3851L1.21399 26.3723L1.23699 26.3493L14.8359 20.1798L17.1054 19.1473Z" fill="#3E5578"/>
<path d="M17.1054 0V19.1473L1.21399 26.3723L17.1054 0Z" fill="#6DB2D8"/>
<path d="M10.6726 50.3397C10.9128 50.4419 11.1505 50.5442 11.3882 50.6336C11.1505 50.5442 10.9128 50.4419 10.6726 50.3397Z" fill="#335F8A"/>
<path d="M11.3882 50.6336C11.6259 50.7256 11.8763 50.8176 12.1242 50.8892C11.8763 50.8176 11.6259 50.7359 11.3882 50.6336Z" fill="#335F8A"/>
<path d="M12.7504 51.0988C12.942 51.1576 13.1235 51.201 13.3152 51.247C13.1337 51.201 12.942 51.1448 12.7504 51.0988Z" fill="#335F8A"/>
<path d="M0.511141 29.7305L17.0926 39.5419C16.8672 41.0318 16.4675 42.49 15.9016 43.8866C14.5675 47.1068 11.8994 50.5007 6.70361 47.9118C4.622 46.2059 2.94206 44.0621 1.78339 41.633C0.624713 39.2039 0.0158004 36.5492 0 33.858C0.0096818 32.467 0.181216 31.0818 0.511141 29.7305Z" fill="#6DB2D8"/>
<path d="M27.484 47.9118L27.438 47.9476C27.3486 48.014 27.2668 48.083 27.1824 48.152L27.1594 48.1725C27.07 48.2517 26.9678 48.3207 26.8758 48.3897C26.775 48.4713 26.6691 48.5464 26.5589 48.6146C26.4487 48.684 26.3429 48.7599 26.2419 48.8421C26.1397 48.9213 26.0477 48.9673 25.9583 49.0363L25.8995 49.0695C25.7998 49.1385 25.6976 49.1948 25.6056 49.2612C25.6056 49.2612 25.5826 49.2612 25.5724 49.2842C25.4701 49.3532 25.3679 49.4095 25.2657 49.4785C25.1634 49.5475 25.0382 49.6037 24.9258 49.6701C24.8133 49.7366 24.6983 49.7954 24.5858 49.8516H24.5731L24.2332 50.0203C24.1207 50.0765 24.0057 50.1353 23.8805 50.1915C23.7552 50.2477 23.6428 50.3039 23.5303 50.35C23.2927 50.4522 23.0524 50.5544 22.8147 50.6439C22.5771 50.7333 22.3266 50.8253 22.0787 50.8994C21.9818 50.9359 21.8828 50.9666 21.7822 50.9914L21.4551 51.0937C21.2609 51.1499 21.0794 51.1959 20.8877 51.2419C20.8187 51.2623 20.7395 51.2751 20.6705 51.2981L20.5478 51.3211L20.2411 51.3876C20.1389 51.4106 20.0597 51.4233 19.9575 51.4438C19.8734 51.4649 19.788 51.4802 19.7019 51.4898C19.6099 51.5026 19.5077 51.5256 19.4182 51.5358C19.3722 51.5358 19.3262 51.5358 19.2828 51.5588L19.0655 51.5818H18.9531C18.8746 51.5958 18.7951 51.6035 18.7154 51.6048C18.6172 51.6188 18.5181 51.6265 18.4189 51.6278C18.3397 51.6278 18.2733 51.6278 18.1915 51.6278C18.1097 51.6278 18.056 51.6406 17.9896 51.6406C17.9103 51.6406 17.8311 51.6406 17.7621 51.6406C17.6931 51.6406 17.5474 51.6406 17.4452 51.6406H16.7654C16.659 51.6472 16.5523 51.6472 16.4459 51.6406C16.3667 51.6406 16.2875 51.6406 16.2082 51.6406C16.1392 51.6406 16.0728 51.6278 16.0038 51.6278C15.9348 51.6278 15.8556 51.6278 15.7763 51.6278C15.6788 51.6151 15.5807 51.6074 15.4824 51.6048C15.4032 51.6048 15.324 51.6048 15.2447 51.5818H15.1297C15.059 51.5678 14.9872 51.5601 14.9151 51.5588C14.8692 51.5563 14.8237 51.5486 14.7796 51.5358C14.6841 51.5269 14.5893 51.5115 14.4959 51.4898C14.4039 51.4898 14.3247 51.4566 14.2404 51.4438C14.1448 51.4302 14.0501 51.4115 13.9567 51.3876C13.8647 51.3646 13.7522 51.3441 13.65 51.3211L13.5248 51.2981C13.4459 51.2924 13.3673 51.2822 13.2896 51.2674C13.0954 51.2214 12.9037 51.1652 12.7223 51.1192L12.3824 51.017C12.2801 50.9838 12.1779 50.9608 12.0859 50.925C11.8303 50.8458 11.5978 50.7563 11.3499 50.6694C11.102 50.5825 10.8617 50.4777 10.6343 50.3755C10.5218 50.3193 10.3966 50.2733 10.2816 50.2171L9.93144 50.0458L9.59153 49.8771C9.47908 49.8209 9.36663 49.7519 9.25162 49.6957C9.13661 49.6395 9.02416 49.5705 8.91171 49.504C8.79926 49.4376 8.70725 49.3788 8.60503 49.3098L8.5718 49.2868C8.46868 49.2298 8.36963 49.1657 8.27534 49.0951L8.21912 49.0619C8.12967 49.0056 8.02744 48.9366 7.93543 48.8676C7.84343 48.7986 7.72075 48.722 7.61852 48.6402C7.5163 48.5584 7.40385 48.4945 7.30162 48.4153L7.01793 48.198L6.99493 48.1776C6.90293 48.1086 6.8237 48.0396 6.73936 47.9731L6.69336 47.9374C11.8763 50.5237 14.5649 47.1221 15.8939 43.9224C16.4601 42.5257 16.8607 41.0675 17.0874 39.5777C17.3123 41.0718 17.7121 42.5343 18.2784 43.9351C19.6227 47.0965 22.301 50.5007 27.484 47.9118Z" fill="#529BBA"/>
<path d="M20.8827 51.247C21.0744 51.201 21.2686 51.1448 21.4501 51.0988C21.2686 51.1448 21.0744 51.201 20.8827 51.247Z" fill="#335F8A"/>
<path d="M22.0839 50.8969C22.3394 50.8176 22.572 50.7256 22.8225 50.6413C22.5822 50.7359 22.3343 50.8176 22.0839 50.8969Z" fill="#335F8A"/>
<path d="M22.8225 50.6336C23.0602 50.5442 23.2979 50.4419 23.5355 50.3397C23.2979 50.4419 23.0602 50.5442 22.8225 50.6336Z" fill="#335F8A"/>
<path d="M34.1979 33.858C34.1816 36.5495 33.5725 39.2044 32.4138 41.6338C31.2552 44.0633 29.5755 46.2076 27.4943 47.9144C22.3113 50.5007 19.6227 47.0965 18.2937 43.8993C17.7286 42.5025 17.3289 41.0444 17.1028 39.5546L33.6842 29.7433C34.0252 31.0883 34.1977 32.4704 34.1979 33.858Z" fill="#4B6B9A"/>
</svg>
